<mxfile host="app.diagrams.net" modified="2021-02-04T14:24:58.499Z" agent="5.0 (Windows NT 10.0; Win64; x64) AppleWebKit/537.36 (KHTML, like Gecko) Chrome/88.0.4324.146 Safari/537.36" etag="BL-0uQyQU8wIm49B1rDu" version="14.2.9" type="github">
  <diagram id="SN9ygan8Uj5CdTDd3GXQ" name="Page-1">
    <mxGraphModel dx="981" dy="550" grid="1" gridSize="10" guides="1" tooltips="1" connect="1" arrows="1" fold="1" page="1" pageScale="1" pageWidth="827" pageHeight="1169" math="0" shadow="0">
      <root>
        <mxCell id="0" />
        <mxCell id="1" parent="0" />
        <mxCell id="-K4n2R2as1fBCOdyDgti-8" value="" style="rounded=0;whiteSpace=wrap;html=1;" vertex="1" parent="1">
          <mxGeometry x="10" y="120" width="120" height="420" as="geometry" />
        </mxCell>
        <mxCell id="-K4n2R2as1fBCOdyDgti-1" value="Dashboard" style="text;html=1;strokeColor=none;fillColor=none;align=center;verticalAlign=middle;whiteSpace=wrap;rounded=0;" vertex="1" parent="1">
          <mxGeometry x="20" y="140" width="100" height="20" as="geometry" />
        </mxCell>
        <mxCell id="-K4n2R2as1fBCOdyDgti-58" style="edgeStyle=orthogonalEdgeStyle;rounded=0;orthogonalLoop=1;jettySize=auto;html=1;exitX=1;exitY=0.5;exitDx=0;exitDy=0;entryX=0;entryY=0.5;entryDx=0;entryDy=0;" edge="1" parent="1" source="-K4n2R2as1fBCOdyDgti-5" target="-K4n2R2as1fBCOdyDgti-57">
          <mxGeometry relative="1" as="geometry" />
        </mxCell>
        <mxCell id="-K4n2R2as1fBCOdyDgti-5" value="Policies" style="text;html=1;strokeColor=none;fillColor=none;align=center;verticalAlign=middle;whiteSpace=wrap;rounded=0;" vertex="1" parent="1">
          <mxGeometry x="20" y="250" width="100" height="20" as="geometry" />
        </mxCell>
        <mxCell id="-K4n2R2as1fBCOdyDgti-4" value="Services" style="text;html=1;strokeColor=none;fillColor=none;align=center;verticalAlign=middle;whiteSpace=wrap;rounded=0;" vertex="1" parent="1">
          <mxGeometry x="20" y="290" width="100" height="20" as="geometry" />
        </mxCell>
        <mxCell id="-K4n2R2as1fBCOdyDgti-40" style="edgeStyle=orthogonalEdgeStyle;rounded=0;orthogonalLoop=1;jettySize=auto;html=1;exitX=1;exitY=0.5;exitDx=0;exitDy=0;" edge="1" parent="1" source="-K4n2R2as1fBCOdyDgti-6" target="-K4n2R2as1fBCOdyDgti-39">
          <mxGeometry relative="1" as="geometry" />
        </mxCell>
        <mxCell id="-K4n2R2as1fBCOdyDgti-6" value="Applications" style="text;html=1;strokeColor=none;fillColor=none;align=center;verticalAlign=middle;whiteSpace=wrap;rounded=0;" vertex="1" parent="1">
          <mxGeometry x="20" y="210" width="100" height="20" as="geometry" />
        </mxCell>
        <mxCell id="-K4n2R2as1fBCOdyDgti-3" value="Users" style="text;html=1;strokeColor=none;fillColor=none;align=center;verticalAlign=middle;whiteSpace=wrap;rounded=0;" vertex="1" parent="1">
          <mxGeometry x="20" y="180" width="100" height="20" as="geometry" />
        </mxCell>
        <mxCell id="-K4n2R2as1fBCOdyDgti-13" style="edgeStyle=orthogonalEdgeStyle;rounded=0;orthogonalLoop=1;jettySize=auto;html=1;exitX=1;exitY=0.5;exitDx=0;exitDy=0;" edge="1" parent="1" source="-K4n2R2as1fBCOdyDgti-11" target="-K4n2R2as1fBCOdyDgti-12">
          <mxGeometry relative="1" as="geometry" />
        </mxCell>
        <mxCell id="-K4n2R2as1fBCOdyDgti-11" value="Create User" style="text;html=1;strokeColor=none;fillColor=none;align=center;verticalAlign=middle;whiteSpace=wrap;rounded=0;" vertex="1" parent="1">
          <mxGeometry x="250" y="50" width="100" height="20" as="geometry" />
        </mxCell>
        <mxCell id="-K4n2R2as1fBCOdyDgti-17" style="edgeStyle=orthogonalEdgeStyle;rounded=0;orthogonalLoop=1;jettySize=auto;html=1;exitX=0.5;exitY=1;exitDx=0;exitDy=0;entryX=0.5;entryY=0;entryDx=0;entryDy=0;" edge="1" parent="1" source="-K4n2R2as1fBCOdyDgti-12" target="-K4n2R2as1fBCOdyDgti-16">
          <mxGeometry relative="1" as="geometry" />
        </mxCell>
        <mxCell id="-K4n2R2as1fBCOdyDgti-12" value="" style="rounded=0;whiteSpace=wrap;html=1;" vertex="1" parent="1">
          <mxGeometry x="380" y="30" width="120" height="40" as="geometry" />
        </mxCell>
        <mxCell id="-K4n2R2as1fBCOdyDgti-14" value="User details" style="text;html=1;strokeColor=none;fillColor=none;align=center;verticalAlign=middle;whiteSpace=wrap;rounded=0;" vertex="1" parent="1">
          <mxGeometry x="390" y="40" width="100" height="20" as="geometry" />
        </mxCell>
        <mxCell id="-K4n2R2as1fBCOdyDgti-15" value="" style="rounded=0;whiteSpace=wrap;html=1;" vertex="1" parent="1">
          <mxGeometry x="380" y="150" width="120" height="70" as="geometry" />
        </mxCell>
        <mxCell id="-K4n2R2as1fBCOdyDgti-18" style="edgeStyle=orthogonalEdgeStyle;rounded=0;orthogonalLoop=1;jettySize=auto;html=1;exitX=0.5;exitY=1;exitDx=0;exitDy=0;" edge="1" parent="1" source="-K4n2R2as1fBCOdyDgti-16" target="-K4n2R2as1fBCOdyDgti-15">
          <mxGeometry relative="1" as="geometry" />
        </mxCell>
        <mxCell id="-K4n2R2as1fBCOdyDgti-16" value="Permissions" style="text;html=1;strokeColor=none;fillColor=none;align=center;verticalAlign=middle;whiteSpace=wrap;rounded=0;" vertex="1" parent="1">
          <mxGeometry x="390" y="100" width="100" height="20" as="geometry" />
        </mxCell>
        <mxCell id="-K4n2R2as1fBCOdyDgti-19" value="Permission Detail" style="text;html=1;strokeColor=none;fillColor=none;align=center;verticalAlign=middle;whiteSpace=wrap;rounded=0;" vertex="1" parent="1">
          <mxGeometry x="390" y="160" width="100" height="20" as="geometry" />
        </mxCell>
        <mxCell id="-K4n2R2as1fBCOdyDgti-24" style="edgeStyle=orthogonalEdgeStyle;rounded=0;orthogonalLoop=1;jettySize=auto;html=1;exitX=1;exitY=0.5;exitDx=0;exitDy=0;" edge="1" parent="1" source="-K4n2R2as1fBCOdyDgti-20" target="-K4n2R2as1fBCOdyDgti-22">
          <mxGeometry relative="1" as="geometry" />
        </mxCell>
        <mxCell id="-K4n2R2as1fBCOdyDgti-20" value="Add Policy" style="text;html=1;strokeColor=none;fillColor=none;align=center;verticalAlign=middle;whiteSpace=wrap;rounded=0;" vertex="1" parent="1">
          <mxGeometry x="390" y="190" width="100" height="20" as="geometry" />
        </mxCell>
        <mxCell id="-K4n2R2as1fBCOdyDgti-22" value="" style="rounded=0;whiteSpace=wrap;html=1;" vertex="1" parent="1">
          <mxGeometry x="570" y="150" width="120" height="80" as="geometry" />
        </mxCell>
        <mxCell id="-K4n2R2as1fBCOdyDgti-23" value="Policy Details" style="text;html=1;strokeColor=none;fillColor=none;align=center;verticalAlign=middle;whiteSpace=wrap;rounded=0;" vertex="1" parent="1">
          <mxGeometry x="580" y="160" width="100" height="20" as="geometry" />
        </mxCell>
        <mxCell id="-K4n2R2as1fBCOdyDgti-32" style="edgeStyle=orthogonalEdgeStyle;rounded=0;orthogonalLoop=1;jettySize=auto;html=1;exitX=0.5;exitY=1;exitDx=0;exitDy=0;" edge="1" parent="1" source="-K4n2R2as1fBCOdyDgti-26" target="-K4n2R2as1fBCOdyDgti-28">
          <mxGeometry relative="1" as="geometry" />
        </mxCell>
        <mxCell id="-K4n2R2as1fBCOdyDgti-26" value="Select Service" style="text;html=1;strokeColor=none;fillColor=none;align=center;verticalAlign=middle;whiteSpace=wrap;rounded=0;" vertex="1" parent="1">
          <mxGeometry x="580" y="190" width="100" height="20" as="geometry" />
        </mxCell>
        <mxCell id="-K4n2R2as1fBCOdyDgti-28" value="" style="rounded=0;whiteSpace=wrap;html=1;" vertex="1" parent="1">
          <mxGeometry x="570" y="270" width="120" height="120" as="geometry" />
        </mxCell>
        <mxCell id="-K4n2R2as1fBCOdyDgti-29" value="Action A" style="text;html=1;strokeColor=none;fillColor=none;align=center;verticalAlign=middle;whiteSpace=wrap;rounded=0;" vertex="1" parent="1">
          <mxGeometry x="580" y="290" width="100" height="20" as="geometry" />
        </mxCell>
        <mxCell id="-K4n2R2as1fBCOdyDgti-30" value="Action B" style="text;html=1;strokeColor=none;fillColor=none;align=center;verticalAlign=middle;whiteSpace=wrap;rounded=0;" vertex="1" parent="1">
          <mxGeometry x="580" y="320" width="100" height="20" as="geometry" />
        </mxCell>
        <mxCell id="-K4n2R2as1fBCOdyDgti-31" value="Action C" style="text;html=1;strokeColor=none;fillColor=none;align=center;verticalAlign=middle;whiteSpace=wrap;rounded=0;" vertex="1" parent="1">
          <mxGeometry x="580" y="350" width="100" height="20" as="geometry" />
        </mxCell>
        <mxCell id="-K4n2R2as1fBCOdyDgti-35" value="Messaging" style="text;html=1;strokeColor=none;fillColor=none;align=center;verticalAlign=middle;whiteSpace=wrap;rounded=0;" vertex="1" parent="1">
          <mxGeometry x="700" y="180" width="100" height="20" as="geometry" />
        </mxCell>
        <mxCell id="-K4n2R2as1fBCOdyDgti-36" value="Wills" style="text;html=1;strokeColor=none;fillColor=none;align=center;verticalAlign=middle;whiteSpace=wrap;rounded=0;" vertex="1" parent="1">
          <mxGeometry x="510" y="20" width="100" height="20" as="geometry" />
        </mxCell>
        <mxCell id="-K4n2R2as1fBCOdyDgti-37" value="Derek" style="text;html=1;strokeColor=none;fillColor=none;align=center;verticalAlign=middle;whiteSpace=wrap;rounded=0;" vertex="1" parent="1">
          <mxGeometry x="510" y="50" width="100" height="20" as="geometry" />
        </mxCell>
        <mxCell id="-K4n2R2as1fBCOdyDgti-38" value="CRM" style="text;html=1;strokeColor=none;fillColor=none;align=center;verticalAlign=middle;whiteSpace=wrap;rounded=0;" vertex="1" parent="1">
          <mxGeometry x="700" y="210" width="100" height="20" as="geometry" />
        </mxCell>
        <mxCell id="-K4n2R2as1fBCOdyDgti-46" style="edgeStyle=orthogonalEdgeStyle;rounded=0;orthogonalLoop=1;jettySize=auto;html=1;exitX=1;exitY=0.5;exitDx=0;exitDy=0;entryX=0;entryY=0.5;entryDx=0;entryDy=0;" edge="1" parent="1" source="-K4n2R2as1fBCOdyDgti-39" target="-K4n2R2as1fBCOdyDgti-41">
          <mxGeometry relative="1" as="geometry" />
        </mxCell>
        <mxCell id="-K4n2R2as1fBCOdyDgti-39" value="Create App" style="text;html=1;strokeColor=none;fillColor=none;align=center;verticalAlign=middle;whiteSpace=wrap;rounded=0;" vertex="1" parent="1">
          <mxGeometry x="160" y="290" width="100" height="20" as="geometry" />
        </mxCell>
        <mxCell id="-K4n2R2as1fBCOdyDgti-47" style="edgeStyle=orthogonalEdgeStyle;rounded=0;orthogonalLoop=1;jettySize=auto;html=1;exitX=0.5;exitY=1;exitDx=0;exitDy=0;entryX=0.5;entryY=0;entryDx=0;entryDy=0;" edge="1" parent="1" source="-K4n2R2as1fBCOdyDgti-41" target="-K4n2R2as1fBCOdyDgti-43">
          <mxGeometry relative="1" as="geometry" />
        </mxCell>
        <mxCell id="-K4n2R2as1fBCOdyDgti-41" value="" style="rounded=0;whiteSpace=wrap;html=1;" vertex="1" parent="1">
          <mxGeometry x="280" y="280" width="120" height="40" as="geometry" />
        </mxCell>
        <mxCell id="-K4n2R2as1fBCOdyDgti-42" value="App Details" style="text;html=1;strokeColor=none;fillColor=none;align=center;verticalAlign=middle;whiteSpace=wrap;rounded=0;" vertex="1" parent="1">
          <mxGeometry x="292" y="288" width="100" height="20" as="geometry" />
        </mxCell>
        <mxCell id="-K4n2R2as1fBCOdyDgti-53" style="edgeStyle=orthogonalEdgeStyle;rounded=0;orthogonalLoop=1;jettySize=auto;html=1;exitX=0.5;exitY=1;exitDx=0;exitDy=0;entryX=0.5;entryY=0;entryDx=0;entryDy=0;" edge="1" parent="1" source="-K4n2R2as1fBCOdyDgti-43" target="-K4n2R2as1fBCOdyDgti-48">
          <mxGeometry relative="1" as="geometry" />
        </mxCell>
        <mxCell id="-K4n2R2as1fBCOdyDgti-43" value="Select Services" style="text;html=1;strokeColor=none;fillColor=none;align=center;verticalAlign=middle;whiteSpace=wrap;rounded=0;" vertex="1" parent="1">
          <mxGeometry x="290" y="350" width="100" height="20" as="geometry" />
        </mxCell>
        <mxCell id="-K4n2R2as1fBCOdyDgti-56" style="edgeStyle=orthogonalEdgeStyle;rounded=0;orthogonalLoop=1;jettySize=auto;html=1;exitX=0.5;exitY=1;exitDx=0;exitDy=0;" edge="1" parent="1" source="-K4n2R2as1fBCOdyDgti-48" target="-K4n2R2as1fBCOdyDgti-54">
          <mxGeometry relative="1" as="geometry" />
        </mxCell>
        <mxCell id="-K4n2R2as1fBCOdyDgti-48" value="Add Users" style="text;html=1;strokeColor=none;fillColor=none;align=center;verticalAlign=middle;whiteSpace=wrap;rounded=0;" vertex="1" parent="1">
          <mxGeometry x="290" y="400" width="100" height="20" as="geometry" />
        </mxCell>
        <mxCell id="-K4n2R2as1fBCOdyDgti-49" value="Messaging" style="text;html=1;strokeColor=none;fillColor=none;align=center;verticalAlign=middle;whiteSpace=wrap;rounded=0;" vertex="1" parent="1">
          <mxGeometry x="400" y="350" width="100" height="20" as="geometry" />
        </mxCell>
        <mxCell id="-K4n2R2as1fBCOdyDgti-50" value="App 1" style="text;html=1;strokeColor=none;fillColor=none;align=center;verticalAlign=middle;whiteSpace=wrap;rounded=0;" vertex="1" parent="1">
          <mxGeometry x="413" y="290" width="100" height="20" as="geometry" />
        </mxCell>
        <mxCell id="-K4n2R2as1fBCOdyDgti-51" value="Wills" style="text;html=1;strokeColor=none;fillColor=none;align=center;verticalAlign=middle;whiteSpace=wrap;rounded=0;" vertex="1" parent="1">
          <mxGeometry x="400" y="400" width="100" height="20" as="geometry" />
        </mxCell>
        <mxCell id="-K4n2R2as1fBCOdyDgti-54" value="Save App" style="text;html=1;strokeColor=none;fillColor=none;align=center;verticalAlign=middle;whiteSpace=wrap;rounded=0;" vertex="1" parent="1">
          <mxGeometry x="290" y="450" width="100" height="20" as="geometry" />
        </mxCell>
        <mxCell id="-K4n2R2as1fBCOdyDgti-57" value="See all created policies and also add new policies" style="text;html=1;strokeColor=none;fillColor=none;align=center;verticalAlign=middle;whiteSpace=wrap;rounded=0;" vertex="1" parent="1">
          <mxGeometry x="170" y="510" width="150" height="50" as="geometry" />
        </mxCell>
      </root>
    </mxGraphModel>
  </diagram>
</mxfile>
